# xmcd
#
# Track frame offsets: 
#        150
#        41121
#        68785
#        89960
#        116814
#        143876
#        174924
#        217219
#        244481
#        272424
#
# Disc length: 3777 seconds
#
# Revision: 1
# Processed by: cddbd v1.5.2PL0 Copyright (c) Steve Scherf et al.
# Submitted via: ExactAudioCopy v0.99pb5
#
DISCID=a10ebf0a
DTITLE=Soundscapes Relaxing Music - 17 Imagination
DYEAR=1900
DGENRE=New Age
TTITLE0=U.P.I. - To Roby
TTITLE1=Neve - Flying Nature
TTITLE2=Eclipse - Imagination P. 1
TTITLE3=Sunrise - Tales
TTITLE4=Explora - The Collector
TTITLE5=Project Cb 1 - Spiritus
TTITLE6=The Sonic Theatre - The Forest
TTITLE7=Flower B. - The Well
TTITLE8=Eclipse - Imagination P. 2
TTITLE9=The Sonic Theatre - The Forest (Finale)
EXTD=
EXTT0=
EXTT1=
EXTT2=
EXTT3=
EXTT4=
EXTT5=
EXTT6=
EXTT7=
EXTT8=
EXTT9=
PLAYORDER=
